<svg width="18" height="18" viewBox="0 0 18 18" fill="none" xmlns="http://www.w3.org/2000/svg">
<path d="M7.59303 18V11.6722H5.3142V9.05567H7.5838C7.62071 7.11649 7.24244 4.91753 9.34598 3.87835C10.4623 3.32165 11.8739 3.58144 13.0179 3.72062V5.94742C12.04 5.94742 11.1912 5.80825 10.6838 6.45773C10.2963 6.94948 10.4254 8.3134 10.4254 9.05567H12.9165L12.5197 11.6722L10.4162 11.6814V18C10.6653 18 11.0712 17.8794 11.2927 17.8237C11.5879 17.7495 11.837 17.666 12.123 17.5639C13.0733 17.2392 14.0882 16.6082 14.8355 15.9773C15.3244 15.5598 15.7673 15.0959 16.1548 14.5856C17.0866 13.3237 17.6863 11.9969 17.9262 10.4196C17.9631 10.1598 17.9908 9.89072 18.0092 9.63093V8.46185C17.9539 7.51546 17.7417 6.58763 17.3911 5.70619C17.0313 4.77835 16.5146 3.92474 15.8688 3.16392C15.8134 3.09897 15.795 3.08969 15.7304 3.01546C15.4721 2.69072 15.1861 2.45876 14.9185 2.20825L14.0143 1.49381C13.0917 0.881443 12.0677 0.436082 10.979 0.194845C10.4346 0.0835051 9.88109 0.0185567 9.3183 0H8.69093C8.13736 0.00927835 7.59303 0.0835051 7.04869 0.194845C6.49513 0.324742 5.95079 0.501031 5.42491 0.723711C4.93593 0.937113 4.47463 1.18763 4.03178 1.47526L3.26602 2.05052C2.51871 2.66289 1.88211 3.3866 1.36545 4.21237C1.04254 4.73196 1.05177 4.75052 0.793439 5.2701C0.636597 5.65052 0.48898 6.04948 0.369041 6.44845C0.156843 7.10722 0.0369041 7.79381 0 8.48969V9.51959C0.0276781 10.0948 0.110712 10.6701 0.249103 11.2361C0.378267 11.7835 0.562788 12.3216 0.802665 12.832C1.08867 13.4072 1.18093 13.6577 1.5961 14.2237C2.22347 15.0959 2.37109 15.2258 3.12763 15.9309C3.17376 15.968 3.21989 16.0144 3.26602 16.0423C3.3306 16.0887 3.34905 16.1165 3.41363 16.1722C3.52435 16.2649 3.61661 16.3299 3.73654 16.4134C4.64992 17.0443 5.58175 17.5361 6.67965 17.8052C6.92875 17.8701 7.34393 18 7.59303 18Z" fill="black"/>
</svg>
