<svg width="18" height="18" viewBox="0 0 18 18" fill="none" xmlns="http://www.w3.org/2000/svg">
<path d="M2.6884 6.75895H5.34013V15.3304H2.6884V6.75895ZM9.65378 11.3018V15.3304H7.02648V6.75895H9.55602V7.9467C9.67822 7.9467 9.61712 7.90997 9.7882 7.67732C9.82486 7.62834 9.86152 7.57936 9.89818 7.54262C9.94706 7.49364 9.95928 7.45691 10.0082 7.40793C10.5703 6.84466 11.3401 6.53854 12.1344 6.55078C12.9898 6.55078 13.7963 6.73446 14.3707 7.28548L14.4929 7.40793C14.5295 7.44466 14.5784 7.49364 14.6029 7.54262C15.0061 8.0814 15.1528 8.59568 15.2627 9.36711C15.3238 10.0038 15.3483 10.6406 15.3483 11.2896V15.3549H12.6843V10.8365C12.6843 10.212 12.611 9.41609 12.0611 9.06099C11.7434 8.85283 11.4746 8.87732 11.1202 8.87732C10.8025 8.87732 10.497 8.98752 10.2526 9.19568C10.2037 9.23242 10.167 9.26915 10.1304 9.31813C10.057 9.40385 9.98372 9.51405 9.93484 9.61201C9.70266 10.0528 9.65378 10.6406 9.65378 11.3018ZM5.56009 4.02834C5.56009 4.43242 5.38901 4.82425 5.10795 5.10589C4.52139 5.71813 3.54379 5.74262 2.9328 5.15487C2.3218 4.56711 2.30958 3.58752 2.89614 2.97527L2.9328 2.93854C3.03055 2.84058 3.12831 2.75486 3.25051 2.69364C3.99593 2.26507 4.93687 2.52221 5.35235 3.26915C5.48677 3.5018 5.56009 3.77119 5.56009 4.02834ZM3.23355e-06 1.50588V16.4814C3.23355e-06 16.9467 0.0488831 17.1916 0.305502 17.5345C0.537682 17.8039 0.855401 17.9753 1.20978 17.9998H16.7414C16.9369 17.9998 17.1202 17.9508 17.279 17.8528C17.8289 17.5712 17.9878 17.0814 17.9878 16.4814V1.50588C18 1.29772 17.9756 1.1018 17.9145 0.905885C17.7556 0.403844 17.2913 0.0487415 16.7658 0.0120068H1.222C0.733201 -0.000238127 0.244403 0.379354 0.073323 0.881395C0.0122232 1.08956 -0.0122167 1.29772 3.23355e-06 1.50588Z" fill="black"/>
</svg>
