<svg width="18" height="18" viewBox="0 0 18 18" fill="none" xmlns="http://www.w3.org/2000/svg">
<path fill-rule="evenodd" clip-rule="evenodd" d="M6.00358 9.00537C6.00358 7.34366 7.34366 6.00358 9.00537 6.00358C10.6671 6.00358 12.0072 7.34366 12.0072 9.00537C12.0072 10.6671 10.6671 12.0072 9.00537 12.0072C7.34366 12.0072 6.00358 10.6564 6.00358 9.00537ZM4.37404 9.00537C4.37404 11.5569 6.44313 13.626 8.99465 13.626C11.5462 13.626 13.6153 11.5569 13.6153 9.00537C13.6153 6.45385 11.5462 4.38476 8.99465 4.38476C6.44313 4.38476 4.37404 6.45385 4.37404 9.00537ZM12.7254 4.19178C12.7254 3.59143 13.2079 3.109 13.8082 3.109C14.4086 3.109 14.891 3.59143 14.891 4.19178C14.891 4.79214 14.4086 5.27457 13.8082 5.27457C13.2079 5.27457 12.7254 4.79214 12.7254 4.19178ZM5.36034 16.3276C6.30376 16.3705 6.59322 16.3812 8.99465 16.3812C11.3961 16.3812 11.6855 16.3705 12.629 16.3276C13.5081 16.2847 13.9798 16.1453 14.3014 16.0167C14.7195 15.8559 15.0197 15.6629 15.3413 15.3413C15.6522 15.0304 15.8559 14.7302 16.0167 14.3014C16.1346 13.9798 16.2847 13.5081 16.3276 12.629C16.3705 11.6748 16.3812 11.3961 16.3812 8.99465C16.3812 6.59322 16.3705 6.30376 16.3276 5.36034C16.2847 4.48124 16.1453 4.00953 16.0167 3.68791C15.8559 3.26981 15.6629 2.96963 15.3413 2.64801C15.0304 2.33711 14.7302 2.13341 14.3014 1.9726C13.9798 1.85468 13.5081 1.70459 12.629 1.6617C11.6748 1.61882 11.3961 1.6081 8.99465 1.6081C6.59322 1.6081 6.30376 1.61882 5.36034 1.6617C4.48124 1.70459 4.00953 1.84396 3.68791 1.9726C3.26981 2.13341 2.96963 2.32639 2.64801 2.64801C2.33711 2.95891 2.13341 3.25909 1.9726 3.68791C1.85468 4.00953 1.70459 4.48124 1.6617 5.36034C1.61882 6.31448 1.6081 6.59322 1.6081 8.99465C1.6081 11.3961 1.61882 11.6855 1.6617 12.629C1.70459 13.5081 1.84396 13.9798 1.9726 14.3014C2.13341 14.7195 2.32639 15.0197 2.64801 15.3413C2.95891 15.6522 3.25909 15.8559 3.68791 16.0167C4.00953 16.1453 4.49196 16.2847 5.36034 16.3276ZM5.28529 0.0536034C4.33115 0.0964861 3.67719 0.246576 3.09828 0.47171C2.50864 0.696844 2.00477 1.00774 1.50089 1.51162C1.00774 2.01549 0.707565 2.50864 0.47171 3.109C0.246576 3.67719 0.0964861 4.33115 0.0536034 5.29601C0.0107207 6.25015 0 6.56105 0 9.00537C0 11.4497 0.0107207 11.7606 0.0536034 12.7147C0.0964861 13.6689 0.246576 14.3228 0.47171 14.9017C0.696844 15.4914 1.00774 15.9952 1.51162 16.4991C2.01549 17.003 2.50864 17.3032 3.109 17.539C3.67719 17.7642 4.33115 17.9142 5.29601 17.9571C6.26087 18 6.56105 18.0107 9.00537 18.0107C11.4497 18.0107 11.7606 18 12.7147 17.9571C13.6689 17.9142 14.3228 17.7642 14.9017 17.539C15.4914 17.3139 15.9952 17.003 16.4991 16.4991C17.003 15.9952 17.3032 15.4914 17.539 14.9017C17.7642 14.3335 17.9142 13.6796 17.9571 12.7147C18 11.7499 18.0107 11.4497 18.0107 9.00537C18.0107 6.56105 18 6.25015 17.9571 5.29601C17.9142 4.34187 17.7642 3.68791 17.539 3.109C17.3139 2.51936 17.003 2.01549 16.4991 1.51162C15.9952 1.00774 15.4914 0.707565 14.9017 0.47171C14.3335 0.246576 13.6796 0.0964861 12.7147 0.0536034C11.7499 0.0107207 11.4497 0 9.00537 0C6.56105 0 6.25015 0.0107207 5.28529 0.0536034Z" fill="black"/>
</svg>
