<svg width="18" height="18" viewBox="0 0 18 18" fill="none" xmlns="http://www.w3.org/2000/svg">
<path d="M18 2.12833C17.332 2.49171 16.6184 2.72963 15.873 2.84643C16.6395 2.28407 17.223 1.40159 17.4973 0.337419C16.7836 0.860851 15.9961 1.22855 15.1559 1.43619C14.4809 0.549387 13.5141 0 12.4629 0C10.4203 0 8.775 2.04182 8.775 4.54218C8.775 4.90123 8.79961 5.2473 8.85938 5.57606C5.79023 5.39005 3.07617 3.58183 1.25156 0.826244C0.931641 1.50541 0.745313 2.28407 0.745313 3.12329C0.745313 4.69791 1.40273 6.09084 2.38359 6.89546C1.78945 6.88248 1.20938 6.67051 0.717187 6.33742V6.38933C0.717187 8.59553 1.99687 10.4297 3.67383 10.8493C3.375 10.9488 3.04453 11.0007 2.70703 11.0007C2.47148 11.0007 2.23242 10.9834 2.00742 10.9229C2.48555 12.7224 3.84258 14.0418 5.45625 14.0851C4.20117 15.292 2.60508 16.0231 0.882422 16.0231C0.580078 16.0231 0.288281 16.0058 0 15.9625C1.63477 17.2603 3.57187 18 5.66016 18C12.4523 18 16.1648 11.0786 16.1648 5.07859C16.1648 4.8796 16.1578 4.68493 16.1508 4.49027C16.882 3.85004 17.4973 3.04975 18 2.12833Z" fill="black"/>
</svg>
